<?xml version="1.0"?>
<svg id="Layer_1" data-name="Layer 1" xmlns="http://www.w3.org/2000/svg" viewBox="0 0 438.98 205.97">
  
  <g>
    <path fill="#f37d89" class="cls-1" d="M292.22,65.37c.13-1.5.35-2.94.35-4.38,0-3.74-.74-7.32-3.06-10.36-1.55-2.03-3.71-2.46-5.73-.93-1.7,1.29-3.34,2.84-4.5,4.61-3.02,4.58-4.31,9.57-1.81,14.83,1.33,2.8,3.73,4.52,6.88,4.56,3.24.04,5.37-1.91,6.67-4.73.53-1.15.82-2.41,1.2-3.59Z"></path>
    <path fill="#f37d89" class="cls-1" d="M298.99,68.51c-.12.6-.27,1.2-.34,1.81-.53,4.62,1.47,9.12,6.29,9.51,2.6.21,4.81-.67,6.66-2.47,4.47-4.36,5.12-13.65,1.37-19.44-1.82-2.82-4.03-3.33-6.76-1.39-4.13,2.93-6.21,7.15-7.21,11.98Z"></path>
    <path fill="#f37d89" class="cls-1" d="M269.8,72.99c.79-4.74-.12-9.18-2.67-13.24-2.02-3.21-4.97-3.53-7.68-.89-4.55,4.42-6.25,10-5.77,16.12.48,6.21,6.58,8.82,11.69,5.27,2.53-1.76,3.74-4.33,4.43-7.26Z"></path>
    <path fill="#f37d89" class="cls-1" d="M330.53,89.41c.6-3.64.35-7.09-.97-10.43-1.42-3.58-4.12-4.48-7.3-2.36-5.21,3.47-7.87,8.48-8.52,14.61-.32,3.02.64,5.68,3.37,7.08,2.76,1.41,5.67,1.3,8.35-.65,2.86-2.1,4.3-5.01,5.07-8.24Z"></path>
  </g>
  <g>
    <path fill="#f37d89" class="cls-1" d="M82.21,205.97c-12.67-.38-21.78-11.91-28.01-33.38-7.56,15.85-18.45,19.69-32.23,12.22C-10.26,165.61,1.52,72.68,4.86,49.7c1.56-9.24,29.12-19.88,27.56-7.61-4.67,32.13-9.56,75.65,0,107.62.44,1.75.67,1.53,1.11.11,3.34-14.86,6.45-28.8,10.67-42.98,2.44-8.69,8.45-14.08,15.56-14.16,12.67-.14,12.67,14.02,14.45,24.56,3.33,20.84,6.45,37.4,10.67,53.46,1.56,4.41,2.89,2.1,3.78-.99,13.34-47.12,10-102.7-9.11-155.73-3.78-8.6,23.78-20.8,27.34-9.26,10.67,29.65,22,74.51,16.45,122.9-3.78,30.33-9.78,78.66-41.12,78.36Z"></path>
    <path fill="#f37d89" class="cls-1" d="M137.78,85.19c.89-8.42,24.45-12.5,23.56-2.45-2.89,29.79-4,60.02,2.22,89.06,2,8.57-21.78,17.55-23.56,8.8-6.45-31-5.33-63.48-2.22-95.41ZM137.78,58.96c.44-4.27.67-8.54,1.11-12.8.44-5.29,9.56-7.18,13.56-7.58,3.78.05,10.67,1.15,10,6.96-.44,4.13-.44,8.29-.89,12.43-.44,5.1-9.34,7.12-13.78,7.44-3.78.33-10.45-.67-10-6.46Z"></path>
    <path fill="#f37d89" class="cls-1" d="M197.57,35.27c-1.78,41.69-5.78,84.29,1.56,125.31,2,11.41-21.56,20.89-23.56,9.3-7.56-44.36-3.56-90.29-2-135.45.44-11.7,24.45-12.06,24.01.84Z"></path>
    <path fill="#f37d89" class="cls-1" d="M217.35,176.97c28.9-24.21-14.89-39.12-12.89-65.87,1.33-15.55,4.44-36.2,20.67-43.84,8.89-4.09,28.67,2.56,15.12,8.93-10,4.77-11.78,23.41-12,32.59-.22,13.35,7.33,17.95,15.78,27.17,15.11,15.88,6.22,31.46-11.56,46.92-8.22,7.25-27.56,4.99-15.11-5.9Z"></path>
    <path fill="#f37d89" class="cls-1" d="M363.17,134.99c.35-7.95,1.57-16.64,1.92-25.2-5.77,15.63-8.74,32.24-19.24,45.84-2.97,3.91-14.51,4.28-17.84,1.92-5.25-3.6-8.92-34.98-4.55-50.86,1.22-4.45,19.76-6.63,18.54-1.94-2.27,8.07-2.97,17.17-1.92,26.11,2.97-8.53,5.25-17.46,8.57-25.53,3.85-9.84,8.75-24.44,24.48-23.75,13.64.66,10.14,19.48,9.79,27.28-.17,7.2-6.64,40.48,2.45,44.59,8.22,3.91-8.74,9.43-14.86,6.92-9.44-4.02-7.34-18.43-7.34-25.39Z"></path>
    <path fill="#f37d89" class="cls-1" d="M404.61,169.14c28.89-15.3-14.89-39.04-12.89-59.26,1.33-13.27,4.44-30.43,20.67-39.98,8.89-5.4,28.67-2.55,15.12,6.32-10,6.27-11.78,23.56-12,32.21-.22,12.52,7.33,17.24,15.78,28.15,15.11,19.67,6.22,35.74-11.56,43.05-8.23,3.34-27.56-4.63-15.11-10.49Z"></path>
    <path fill="#f37d89" class="cls-1" d="M288.28,146.1c-26.14,5.93-35.91-8.48-35.31-22.66.65-10.38,1.67-28.63,13.48-35.72,4.58-2.71,16.63-1.45,20.4,1.39,15.39-.32,29.09,4.63,27.91,17.94-1.35,12.8-2.02,34.03-26.48,39.05ZM290.73,105.88c.36-5.59-.88-8.8-8.68-5.51-1.3,3.76-2.47,8.4-3.16,10.71-1.62,6.83-2.94,15.03-.08,22.14.71,1.84,3.95,1.06,4.53-.14,4.74-8.53,6.85-17.76,7.39-27.2Z"></path>
  </g>
  <g>
    <path fill="#f37d89" class="cls-1" d="M258.65,176.73c0-.4.02-.8.02-1.21,0-1.33-.02-2.67-.02-4,0-.24.02-.47.07-.69.07-.31.26-.57.52-.73.21-.12.45-.12.69-.17.9-.07,1.78-.09,2.67-.09h3.62c.17,0,.33.02.47.09.38.19.59.5.59.9,0,.47-.02.95-.02,1.42-.02.07,0,.14-.02.24-.05.14-.07.28-.14.4-.07.21-.26.28-.47.31-.17,0-.35.02-.52,0-.71-.02-1.42.02-2.13.07-.28.02-.54,0-.83.02-.17,0-.36,0-.52.02s-.26.1-.31.24c-.09.19-.14.38-.14.59.02.59.02,1.18.02,1.78,0,.17.09.28.19.43.07.07.14.12.24.12.35-.02.69-.02,1.02-.05.07,0,.14-.02.21-.02.64.02,1.28.02,1.92.05.36,0,.55.19.55.54.02.5.02,1.02.02,1.54,0,.07,0,.12-.02.19-.02.31-.21.5-.55.54-.4.07-.8.07-1.21.05-.62-.02-1.25,0-1.87,0-.21,0-.35.09-.47.26-.12.17-.19.33-.19.54-.02.52-.02,1.04-.02,1.56,0,1.06.02,2.13.02,3.2,0,.38,0,.78-.07,1.18-.02.09-.05.19-.07.26-.07.24-.24.35-.47.38-.35,0-.69,0-1.04-.02-.33,0-.66-.02-.99-.02-.21,0-.35-.09-.47-.28-.17-.21-.24-.47-.24-.76v-.95c0-.38-.02-.76-.02-1.14v-6.79Z"></path>
    <path fill="#f37d89" class="cls-1" d="M269.12,175.36c.02-.99.02-2.01.02-3.01.02-.17.02-.31.05-.45.07-.36.12-.71.19-1.07.14-.47.45-.73.92-.78.43-.02.85-.07,1.28-.09h1.25c.64-.02,1.3-.02,1.97-.02.26-.02.52,0,.78,0,.43.02.88.02,1.3.05.09,0,.19,0,.26.02.14,0,.26.02.38.02.4,0,.71.19.85.54.05.17.07.35.07.52.02.47.02.92.05,1.37,0,.12-.02.21,0,.31.02.17-.05.31-.12.45-.09.19-.28.21-.45.24-.38.02-.73.05-1.11.05-.85.02-1.73.05-2.58.07-.31,0-.59.02-.9.07-.19.02-.38.12-.45.33-.19.45-.24.95-.14,1.42.07.26.21.4.45.5.21.07.45.09.66.09h2.04c.24,0,.45.05.69.14.09.05.19.12.21.24.19.52.26,1.07.09,1.61-.07.19-.19.38-.31.54-.09.14-.24.19-.4.19-.45.05-.9.12-1.35.17-.47.02-.95.09-1.4.09-.28,0-.59.26-.64.54-.02.21-.05.43-.05.66-.02.69-.02,1.4-.02,2.11,0,.19,0,.38.02.57s.12.36.21.5c.09.12.26.14.4.14.45,0,.92,0,1.4-.02.45,0,.92-.02,1.37-.05.33,0,.64-.02.95-.02.28,0,.57.02.83.14.09.05.19.09.26.14.31.24.47.54.47.95,0,.26.02.52.05.76v.64c-.02.24-.19.4-.35.54-.05.05-.17.07-.24.07-.78.02-1.56.02-2.34.05-.4,0-.8.05-1.21.05-.64.02-1.25.02-1.89.05-.45.02-.9.07-1.35.09-.43.02-.88.02-1.3-.07-.24-.02-.45-.12-.64-.24-.07-.07-.14-.12-.17-.19-.17-.28-.24-.54-.26-.85-.05-.62-.02-1.23-.02-1.85.05-1.23.09-2.46.12-3.69.02-.45,0-.9,0-1.16.05-1.28.07-2.37.09-3.48Z"></path>
    <path fill="#f37d89" class="cls-1" d="M281,175.36c.02-.99.02-2.01.02-3.01.02-.17.02-.31.05-.45.07-.36.12-.71.19-1.07.14-.47.45-.73.92-.78.43-.02.85-.07,1.28-.09h1.25c.64-.02,1.3-.02,1.97-.02.26-.02.52,0,.78,0,.43.02.88.02,1.3.05.09,0,.19,0,.26.02.14,0,.26.02.38.02.4,0,.71.19.85.54.05.17.07.35.07.52.02.47.02.92.05,1.37,0,.12-.02.21,0,.31.02.17-.05.31-.12.45-.09.19-.28.21-.45.24-.38.02-.73.05-1.11.05-.85.02-1.73.05-2.58.07-.31,0-.59.02-.9.07-.19.02-.38.12-.45.33-.19.45-.24.95-.14,1.42.07.26.21.4.45.5.21.07.45.09.66.09h2.04c.24,0,.45.05.69.14.09.05.19.12.21.24.19.52.26,1.07.09,1.61-.07.19-.19.38-.31.54-.09.14-.24.19-.4.19-.45.05-.9.12-1.35.17-.47.02-.95.09-1.4.09-.28,0-.59.26-.64.54-.02.21-.05.43-.05.66-.02.69-.02,1.4-.02,2.11,0,.19,0,.38.02.57s.12.36.21.5c.09.12.26.14.4.14.45,0,.92,0,1.4-.02.45,0,.92-.02,1.37-.05.33,0,.64-.02.95-.02.28,0,.57.02.83.14.09.05.19.09.26.14.31.24.47.54.47.95,0,.26.02.52.05.76v.64c-.02.24-.19.4-.35.54-.05.05-.17.07-.24.07-.78.02-1.56.02-2.34.05-.4,0-.8.05-1.21.05-.64.02-1.25.02-1.89.05-.45.02-.9.07-1.35.09-.43.02-.88.02-1.3-.07-.24-.02-.45-.12-.64-.24-.07-.07-.14-.12-.17-.19-.17-.28-.24-.54-.26-.85-.05-.62-.02-1.23-.02-1.85.05-1.23.09-2.46.12-3.69.02-.45,0-.9,0-1.16.05-1.28.07-2.37.09-3.48Z"></path>
    <path fill="#f37d89" class="cls-1" d="M295.42,186.65c-.24,0-.47-.02-.71-.02-.24-.02-.5-.05-.73-.05-.26,0-.45-.09-.66-.24-.24-.17-.38-.4-.4-.71-.05-.62-.07-1.25-.12-1.89s-.05-1.28-.05-1.94c-.02-.78-.02-1.56-.05-2.37-.05-1.51-.02-3.03,0-4.54.02-.33.05-.66.07-.99,0-.45-.02-.9-.02-1.35,0-.28,0-.57.05-.83.02-.28.07-.54.12-.8.05-.14.12-.31.17-.45.14-.28.38-.4.64-.47.38-.09.76-.09,1.14-.07h.92c.64,0,1.25-.02,1.87-.02h.38c.4.05.83.09,1.25.09.31.02.59.14.88.28.45.26.83.59,1.25.85.33.19.62.45.83.78.35.45.66.9.9,1.4.21.45.33.92.38,1.4.02.45.12.88.17,1.3.02.17.05.33.05.5.05.5.09.99.09,1.49.02.45,0,.88-.02,1.33-.05.78-.24,1.54-.4,2.32-.12.45-.28.9-.45,1.35-.19.54-.45,1.04-.85,1.47-.14.17-.26.36-.4.5-.57.54-1.21.99-1.94,1.3-.09.05-.19.12-.28.14-.14.05-.26.07-.4.09-.17.05-.35.05-.55.09-.33.07-.69.07-1.04.07h-2.06ZM300.18,178.58c.02-.57-.07-1.14-.21-1.7-.12-.52-.28-1.04-.45-1.56-.14-.43-.4-.78-.8-1.02-.09-.07-.21-.14-.31-.24-.14-.14-.33-.21-.52-.26-.28-.07-.57-.05-.88-.02-.21,0-.38.12-.47.31-.12.21-.19.45-.19.71-.02.36-.02.71-.02,1.04,0,.47.05.95.05,1.42,0,.92-.02,1.87-.02,2.79v1.37c0,.43.07.8.21,1.18.09.28.31.4.62.38.28-.05.59-.07.88-.17.85-.21,1.47-.76,1.78-1.59.12-.33.21-.69.28-1.02.05-.14.09-.28.09-.45v-.83c-.02-.12-.05-.24-.02-.36Z"></path>
    <path fill="#f37d89" class="cls-1" d="M312.32,177.99c.02-.59.07-1.21.09-1.8.02-.71,0-1.42,0-2.15v-.31c0-.09-.02-.19-.05-.26-.07-.19-.17-.26-.35-.26-.47,0-.95.02-1.4,0-.24,0-.5-.02-.69-.21-.17-.14-.26-.35-.26-.57,0-.59.09-1.18.33-1.75.14-.31.35-.52.71-.52h1.4c.35.02.69.07,1.02.07.9,0,1.8.02,2.7.02.47,0,.92-.05,1.37-.07.26,0,.52.02.76.14.14.07.24.19.31.33.07.21.12.43.09.64-.02.38-.07.78-.05,1.18,0,.26-.26.54-.47.59-.19.05-.38.09-.59.09-.45.02-.9.02-1.35.05-.19,0-.33.14-.38.36-.02.26-.07.52-.07.76-.02,1.21-.02,2.39-.07,3.57,0,.54-.05,1.09-.07,1.66-.02.5-.02,1.02-.05,1.51,0,1.06,0,2.13-.02,3.2,0,.35,0,.71-.05,1.04-.02.21-.07.4-.12.59-.05.14-.09.28-.14.43-.05.21-.19.35-.38.43-.14.05-.31.09-.47.12-.28.05-.57.09-.88.02-.43-.07-.71-.31-.83-.71-.05-.19-.07-.38-.07-.57-.02-1.51-.02-3.03-.02-4.54h-.02c.02-1.02.02-2.04.07-3.08Z"></path>
    <path fill="#f37d89" class="cls-1" d="M330.22,183.12c0,.88-.02,1.75-.05,2.63,0,.26-.09.5-.19.73-.02.09-.09.17-.19.19-.66.09-1.3.17-1.96.05-.14-.02-.26-.07-.33-.19v-.02c-.28-.21-.31-.54-.28-.85v-5.8c.02-.12.02-.24.02-.35,0-.24-.07-.33-.26-.4-.12-.02-.24-.05-.33-.05-.45.02-.9.05-1.37.05-.35.02-.73.05-1.11.09-.12.02-.26,0-.4.02-.19,0-.31.12-.35.28-.05.12-.07.24-.07.38-.02.62-.02,1.23-.05,1.85,0,1.25-.02,2.49-.02,3.72,0,.33-.02.66-.14.97-.09.26-.21.35-.47.35-.4,0-.83.02-1.23.02-.19,0-.38,0-.57-.02-.45-.07-.71-.43-.71-.85.02-.88.02-1.75.02-2.6v-1.87c.02-.57.05-1.14.05-1.7.02-.78.05-1.56.05-2.37.02-.69.05-1.4.05-2.08,0-.38-.05-.76-.05-1.14-.02-.64-.05-1.28-.02-1.89,0-.47.07-.95.14-1.42.02-.14.09-.31.14-.45.14-.26.38-.4.69-.4.47-.02.95,0,1.42-.02.24,0,.4.14.55.31.07.05.09.14.09.21.02.73.07,1.47.07,2.2v2.79c-.02.19.05.36.14.52.05.09.12.14.24.14.26,0,.52.02.78.02.45.02.88-.02,1.32-.07.26-.02.55-.02.81-.02h.17c.26-.02.35-.09.4-.33.05-.19.07-.36.07-.54,0-1.44.02-2.89.02-4.33,0-.28.12-.52.33-.71.14-.17.35-.21.54-.21.33,0,.66,0,.99.02.21,0,.4.02.59.05.14.02.24.09.28.24.05.19.09.38.12.57.02.36,0,.73,0,1.09.02.78,0,1.54.05,2.32.05,1.28,0,2.58,0,3.88.02.71,0,1.42,0,2.15,0,.95.02,1.92.02,2.86Z"></path>
    <path fill="#f37d89" class="cls-1" d="M332.49,175.36c.02-.99.02-2.01.02-3.01.02-.17.02-.31.05-.45.07-.36.12-.71.19-1.07.14-.47.45-.73.92-.78.43-.02.85-.07,1.28-.09h1.25c.64-.02,1.3-.02,1.97-.02.26-.02.52,0,.78,0,.43.02.88.02,1.3.05.09,0,.19,0,.26.02.14,0,.26.02.38.02.4,0,.71.19.85.54.05.17.07.35.07.52.02.47.02.92.05,1.37,0,.12-.02.21,0,.31.02.17-.05.31-.12.45-.09.19-.28.21-.45.24-.38.02-.73.05-1.11.05-.85.02-1.73.05-2.58.07-.31,0-.59.02-.9.07-.19.02-.38.12-.45.33-.19.45-.24.95-.14,1.42.07.26.21.4.45.5.21.07.45.09.66.09h2.04c.24,0,.45.05.69.14.09.05.19.12.21.24.19.52.26,1.07.09,1.61-.07.19-.19.38-.31.54-.09.14-.24.19-.4.19-.45.05-.9.12-1.35.17-.47.02-.95.09-1.4.09-.28,0-.59.26-.64.54-.02.21-.05.43-.05.66-.02.69-.02,1.4-.02,2.11,0,.19,0,.38.02.57s.12.36.21.5c.09.12.26.14.4.14.45,0,.92,0,1.4-.02.45,0,.92-.02,1.37-.05.33,0,.64-.02.95-.02.28,0,.57.02.83.14.09.05.19.09.26.14.31.24.47.54.47.95,0,.26.02.52.05.76v.64c-.02.24-.19.4-.35.54-.05.05-.17.07-.24.07-.78.02-1.56.02-2.34.05-.4,0-.8.05-1.21.05-.64.02-1.25.02-1.89.05-.45.02-.9.07-1.35.09-.43.02-.88.02-1.3-.07-.24-.02-.45-.12-.64-.24-.07-.07-.14-.12-.17-.19-.17-.28-.24-.54-.26-.85-.05-.62-.02-1.23-.02-1.85.05-1.23.09-2.46.12-3.69.02-.45,0-.9,0-1.16.05-1.28.07-2.37.09-3.48Z"></path>
    <path fill="#f37d89" class="cls-1" d="M351.64,186.65c-.24,0-.47-.02-.71-.02-.24-.02-.5-.05-.73-.05-.26,0-.45-.09-.66-.24-.24-.17-.38-.4-.4-.71-.05-.62-.07-1.25-.12-1.89s-.05-1.28-.05-1.94c-.02-.78-.02-1.56-.05-2.37-.05-1.51-.02-3.03,0-4.54.02-.33.05-.66.07-.99,0-.45-.02-.9-.02-1.35,0-.28,0-.57.05-.83.02-.28.07-.54.12-.8.05-.14.12-.31.17-.45.14-.28.38-.4.64-.47.38-.09.76-.09,1.14-.07h.92c.64,0,1.25-.02,1.87-.02h.38c.4.05.83.09,1.25.09.31.02.59.14.88.28.45.26.83.59,1.25.85.33.19.62.45.83.78.35.45.66.9.9,1.4.21.45.33.92.38,1.4.02.45.12.88.17,1.3.02.17.05.33.05.5.05.5.09.99.09,1.49.02.45,0,.88-.02,1.33-.05.78-.24,1.54-.4,2.32-.12.45-.28.9-.45,1.35-.19.54-.45,1.04-.85,1.47-.14.17-.26.36-.4.5-.57.54-1.21.99-1.94,1.3-.09.05-.19.12-.28.14-.14.05-.26.07-.4.09-.17.05-.35.05-.55.09-.33.07-.69.07-1.04.07h-2.06ZM356.4,178.58c.02-.57-.07-1.14-.21-1.7-.12-.52-.28-1.04-.45-1.56-.14-.43-.4-.78-.8-1.02-.09-.07-.21-.14-.31-.24-.14-.14-.33-.21-.52-.26-.28-.07-.57-.05-.88-.02-.21,0-.38.12-.47.31-.12.21-.19.45-.19.71-.02.36-.02.71-.02,1.04,0,.47.05.95.05,1.42,0,.92-.02,1.87-.02,2.79v1.37c0,.43.07.8.21,1.18.09.28.31.4.62.38.28-.05.59-.07.88-.17.85-.21,1.47-.76,1.78-1.59.12-.33.21-.69.28-1.02.05-.14.09-.28.09-.45v-.83c-.02-.12-.05-.24-.02-.36Z"></path>
    <path fill="#f37d89" class="cls-1" d="M361.77,177.28c.05-.36.05-.73.09-1.09.09-.88.26-1.73.54-2.56.19-.54.43-1.07.73-1.54.38-.59.9-1.04,1.49-1.44.28-.21.62-.38.95-.52.45-.19.92-.28,1.4-.28.45-.02.92-.05,1.4.02.28.02.59.09.9.19h.02c.4.21.83.4,1.21.64.38.26.64.59.9.92.57.73.92,1.54,1.11,2.44.19.99.43,1.99.47,3.01.02.54.02,1.11.02,1.66,0,.02,0,.05-.02.07-.12.47-.09.97-.21,1.44-.19.92-.4,1.85-.78,2.7-.09.19-.17.36-.24.54-.21.52-.52.99-.83,1.47-.26.4-.64.71-1.04.97-.09.09-.21.17-.33.24-.12.1-.26.17-.38.24-.17.07-.33.14-.5.21-.33.17-.69.19-1.04.21-.52.02-1.07,0-1.59-.09-.5-.09-.99-.17-1.44-.45-.45-.33-.9-.66-1.25-1.11-.43-.57-.78-1.18-1.04-1.82-.31-.8-.47-1.66-.52-2.51,0-.24-.07-.47-.07-.69-.05-.4-.07-.8-.09-1.18.02-.57.07-1.14.14-1.68ZM369.73,177.32c-.07-.78-.21-1.56-.45-2.32-.12-.4-.31-.8-.57-1.16l-.09-.09c-.4-.31-.83-.45-1.33-.45-.5.02-.92.24-1.25.62-.59.71-.92,1.56-1.14,2.44-.12.4-.14.81-.17,1.21-.07,1.09-.05,2.18.14,3.24.09.52.21,1.02.45,1.49.24.47.59.8,1.11.95.31.07.64.14.97.17.38.05.73-.09,1.07-.28.28-.17.47-.43.57-.76.24-.64.38-1.28.5-1.94.14-.73.17-1.49.19-2.25,0-.28.02-.57,0-.85Z"></path>
    <path fill="#f37d89" class="cls-1" d="M385.71,185.75c0,.26-.09.5-.21.73-.07.14-.19.19-.36.21-.64,0-1.3.05-1.96.05-.21.02-.4-.02-.54-.21-.09-.09-.21-.07-.33-.02-.31.07-.62.19-.92.26-.4.12-.83.24-1.25.19-.57-.05-1.16-.12-1.7-.24-.12-.02-.24-.07-.33-.14-.24-.12-.5-.24-.73-.38-.17-.09-.31-.24-.43-.38-.24-.24-.43-.52-.64-.78-.1-.12-.21-.26-.33-.38-.24-.33-.43-.69-.52-1.09-.05-.14-.12-.28-.14-.43-.07-.24-.12-.47-.14-.71-.07-.35-.12-.71-.17-1.06-.07-.5-.05-.99-.05-1.49,0-.76.05-1.51.07-2.27.02-.73.12-1.47.26-2.18.14-.64.33-1.28.5-1.89.05-.26.17-.5.33-.71.12-.14.19-.31.26-.47.02-.07.07-.17.14-.24.33-.38.69-.76,1.06-1.09.05-.02.07-.07.12-.09.4-.21.76-.43,1.16-.64.57-.28,1.18-.45,1.8-.5h.47c.19,0,.38.02.59,0,.33-.02.64.05.95.12.24.05.47.12.66.26.07.05.12.07.19.07.09.05.17.07.26.12.26.14.52.28.78.43.05.02.09.05.12.09.28.36.54.69.64,1.14.12.47.17.95.21,1.42.02.38.02.76.05,1.11,0,.14-.05.28-.07.43-.02.14-.12.26-.26.31-.12.05-.24.07-.38.07-.4.05-.8.07-1.21.12-.26,0-.45-.12-.59-.31-.17-.21-.21-.45-.24-.69-.02-.21-.07-.45-.09-.66-.02-.28-.12-.5-.31-.69-.05-.02-.07-.05-.09-.07-.31-.14-.62-.24-.95-.26-.5-.02-.95.12-1.4.31-.52.24-.88.64-1.16,1.09-.28.4-.4.9-.54,1.37-.09.33-.17.69-.24,1.02,0,.09-.02.17-.02.26-.02.5-.02,1.02-.09,1.51-.09.71-.09,1.4-.07,2.11,0,.31.05.64.14.95.05.12.07.26.09.4,0,.05,0,.12.02.17.07.19.14.38.24.54.09.17.21.33.31.5.26.4.66.59,1.09.71.66.19,1.28.09,1.89-.12.24-.09.43-.26.59-.45.21-.28.26-.62.28-.95,0-.14,0-.28-.02-.43,0-.12-.02-.24-.07-.33-.07-.17-.19-.26-.38-.28-.35,0-.71-.02-1.04-.07-.12,0-.21-.02-.33-.05s-.19-.12-.19-.26c-.02-.57-.02-1.14-.02-1.7,0-.05,0-.12.02-.19.07-.38.28-.57.66-.64.12-.02.24-.02.38-.05.59-.05,1.18-.05,1.8-.05.38,0,.76-.02,1.16-.05.35,0,.66.17.95.38.19.17.28.4.28.66v3.29h.05c-.02,1.11-.05,2.2-.05,3.29Z"></path>
  </g>
</svg>